<svg version="1.1" id="Layer_1" xmlns="http://www.w3.org/2000/svg" xmlns:xlink="http://www.w3.org/1999/xlink" x="0px" y="0px"
     width="300px" height="300px" viewBox="0 0 300 300" enable-background="new 0 0 300 300" xml:space="preserve">
 
    <path d="M220.784,150c0,19.533-6.914,36.214-20.742,50.042c-13.828,13.829-30.51,20.743-50.042,20.743
        c-19.533,0-36.213-6.914-50.042-20.743C86.13,186.214,79.216,169.533,79.216,150c0-19.533,6.914-36.213,20.743-50.042
        C113.787,86.129,130.468,79.215,150,79.215c19.532,0,36.214,6.914,50.042,20.742C213.87,113.786,220.784,130.467,220.784,150z
         M209.463,150c0-16.421-5.806-30.436-17.416-42.047C180.437,96.343,166.421,90.537,150,90.537c-14.693,0-27.6,4.753-38.72,14.261
        l11.149,11.148l-7.865,8.644l-11.322-11.409c-8.47,10.775-12.705,23.048-12.705,36.819c0,16.422,5.804,30.438,17.415,42.048
        c11.61,11.609,25.626,17.415,42.047,17.415c13.712,0,25.957-4.265,36.732-12.791l-10.199-10.112l7.778-8.643l10.804,10.717
        C204.68,177.514,209.463,164.636,209.463,150z M175.756,177.744c0,7.145-2.521,13.224-7.562,18.236
        c-5.043,5.013-11.106,7.52-18.193,7.52c-7.145,0-13.253-2.507-18.323-7.52c-5.071-5.013-7.605-11.092-7.605-18.236v-15.212
        c-2.882-0.114-5.315-1.18-7.303-3.197c-1.988-2.017-2.982-4.408-2.982-7.174c0-2.708,0.994-5.069,2.982-7.087
        c1.988-2.017,4.421-3.082,7.303-3.198v-38.114c17.861,0,31.315,3.197,40.362,9.593c7.548,5.302,11.322,12.044,11.322,20.225
        V177.744z M124.072,158.729v-13.051c-4.207,0.346-6.31,2.507-6.31,6.483C117.762,156.195,119.865,158.384,124.072,158.729z
         M152.333,111.28l-17.977-4.148h-5.963v6.31L152.333,111.28z M165.384,119.663l-7-5.186l-29.991,3.284v6.31L165.384,119.663z
         M170.311,128.824l-2.247-4.84l-39.67,4.754v5.186L170.311,128.824z M171.435,138.418v-4.84l-43.042,4.84H171.435z
         M171.435,177.744v-35.869h-3.458c0,6.167-0.691,10.473-2.074,12.921c-1.383,2.45-3.774,3.674-7.173,3.674
        c-6.108,0-9.162-5.532-9.162-16.595h-21.175v35.869H171.435z M146.802,173.681h-3.198v-24.027h-12.187v-2.938h15.384V173.681z
         M138.678,151.728l-2.939,3.112l-2.506-3.112H138.678z M159.68,186.559v-3.371h-19.532v3.371H159.68z"/>
 
</svg>